<?xml version="1.0" standalone="no"?>
<!DOCTYPE svg PUBLIC "-//W3C//DTD SVG 20010904//EN"
 "http://www.w3.org/TR/2001/REC-SVG-20010904/DTD/svg10.dtd">
<svg version="1.0" xmlns="http://www.w3.org/2000/svg"
 width="400.000000pt" height="400.000000pt" viewBox="0 0 400.000000 400.000000"
 preserveAspectRatio="xMidYMid meet">
<metadata>
Created by potrace 1.14, written by Peter Selinger 2001-2017
</metadata>
<g transform="translate(0.000000,400.000000) scale(0.100000,-0.100000)"
fill="#000000" stroke="none">
<path d="M0 2000 l0 -2000 2000 0 2000 0 0 2000 0 2000 -2000 0 -2000 0 0
-2000z m1725 960 l0 -135 -137 -3 -138 -3 0 -134 0 -135 -135 0 -134 0 -3
-137 -3 -138 -135 0 -135 0 -3 413 -2 412 412 -2 413 -3 0 -135z m1373 -272
l-3 -413 -135 0 -135 0 -3 138 -3 137 -134 0 -135 0 0 135 0 134 -137 3 -138
3 -3 124 c-1 69 0 131 2 138 4 10 87 13 416 13 l410 0 -2 -412z m-828 -688 l0
-270 -270 0 -270 0 0 270 0 270 270 0 270 0 0 -270z m-1092 -412 l3 -138 134
0 135 0 0 -135 0 -134 138 -3 137 -3 0 -135 0 -135 -412 -3 -413 -2 0 408 c0
225 3 412 7 416 4 3 66 5 137 4 l131 -3 3 -137z m1920 -276 l2 -412 -412 2
-413 3 0 135 0 135 138 3 137 3 0 134 0 135 135 0 135 0 0 133 c0 74 3 137 7
141 4 3 66 5 137 4 l131 -3 3 -413z"/>
</g>
</svg>
